<svg xmlns="http://www.w3.org/2000/svg" xmlns:xlink="http://www.w3.org/1999/xlink" viewBox="0,0,256,256" width="64px" height="64px"><g fill="#072540" fill-rule="nonzero" stroke="none" stroke-width="1" stroke-linecap="butt" stroke-linejoin="miter" stroke-miterlimit="10" stroke-dasharray="" stroke-dashoffset="0" font-family="none" font-weight="none" font-size="none" text-anchor="none" style="mix-blend-mode: normal"><g transform="scale(4,4)"><path d="M45.928,7h-27.856c-6.115,0 -11.072,4.957 -11.072,11.072v27.856c0,6.115 4.957,11.072 11.072,11.072h27.856c6.115,0 11.072,-4.957 11.072,-11.072v-27.856c0,-6.115 -4.957,-11.072 -11.072,-11.072zM37.67,44.644c-1.702,0 -4.09,-1.045 -4.09,-3.493c0,-2.448 1.522,-3.881 3.672,-4.299c0.851,-0.165 1.785,-0.354 2.603,-0.522c0.868,-0.178 1.489,-0.941 1.489,-1.827v-11.266c0,-0.534 -0.489,-0.934 -1.012,-0.828l-13.153,2.655c-0.526,0.106 -0.904,0.568 -0.904,1.105v16.056c0,2.3 -0.347,5.724 -5.469,5.724c-1.697,0 -4.079,-1.042 -4.079,-3.484c0,-2.442 1.519,-3.871 3.662,-4.288c0.919,-0.179 1.935,-0.385 2.797,-0.561c0.735,-0.151 1.258,-0.8 1.253,-1.55l-0.134,-18.631c-0.008,-1.06 0.738,-1.976 1.777,-2.184l15.531,-3.116c0.795,-0.159 1.537,0.444 1.537,1.255c0.001,5.388 0.003,22.895 0.003,23.516c0,2.305 -0.348,5.738 -5.483,5.738z"></path></g></g></svg>